<svg xmlns="http://www.w3.org/2000/svg" xmlns:xlink="http://www.w3.org/1999/xlink" width="482" zoomAndPan="magnify" viewBox="0 0 361.5 214.499994" height="286" preserveAspectRatio="xMidYMid meet" version="1.0"><defs><g/><clipPath id="30f76ff655"><path d="M 125 0.730469 L 239 0.730469 L 239 113.714844 L 125 113.714844 Z M 125 0.730469 " clip-rule="nonzero"/></clipPath><clipPath id="ee8fcaa2f7"><path d="M 140 0.730469 L 224 0.730469 L 224 113.714844 L 140 113.714844 Z M 140 0.730469 " clip-rule="nonzero"/></clipPath><clipPath id="688e596af6"><path d="M 164 0.730469 L 200 0.730469 L 200 113.714844 L 164 113.714844 Z M 164 0.730469 " clip-rule="nonzero"/></clipPath></defs><g clip-path="url(#30f76ff655)"><path fill="#26973c" d="M 182.308594 113.683594 C 151.164062 113.683594 125.828125 88.347656 125.828125 57.207031 C 125.828125 26.0625 151.164062 0.726562 182.308594 0.726562 C 213.449219 0.726562 238.785156 26.0625 238.785156 57.207031 C 238.785156 88.347656 213.449219 113.683594 182.308594 113.683594 Z M 182.308594 4.917969 C 153.476562 4.917969 130.019531 28.375 130.019531 57.207031 C 130.019531 86.035156 153.476562 109.492188 182.308594 109.492188 C 211.136719 109.492188 234.59375 86.035156 234.59375 57.207031 C 234.59375 28.375 211.140625 4.917969 182.308594 4.917969 Z M 182.308594 4.917969 " fill-opacity="1" fill-rule="nonzero"/></g><path fill="#26973c" d="M 182.308594 39.875 C 166.609375 39.875 151.488281 33.261719 140.824219 21.726562 L 143.902344 18.882812 C 153.777344 29.558594 167.773438 35.683594 182.308594 35.683594 C 196.84375 35.683594 210.839844 29.558594 220.710938 18.878906 L 223.789062 21.726562 C 213.128906 33.261719 198.007812 39.875 182.308594 39.875 Z M 182.308594 39.875 " fill-opacity="1" fill-rule="nonzero"/><path fill="#26973c" d="M 143.90625 95.742188 L 140.828125 92.898438 C 151.488281 81.363281 166.609375 74.746094 182.308594 74.746094 C 198.007812 74.746094 213.128906 81.363281 223.789062 92.894531 L 220.710938 95.742188 C 210.839844 85.0625 196.84375 78.9375 182.308594 78.9375 C 167.773438 78.9375 153.777344 85.0625 143.90625 95.742188 Z M 143.90625 95.742188 " fill-opacity="1" fill-rule="nonzero"/><g clip-path="url(#ee8fcaa2f7)"><path fill="#26973c" d="M 182.308594 113.683594 C 171.042969 113.683594 160.496094 107.722656 152.613281 96.894531 C 144.875 86.265625 140.613281 72.171875 140.613281 57.207031 C 140.613281 42.238281 144.875 28.144531 152.613281 17.515625 C 160.496094 6.6875 171.042969 0.726562 182.308594 0.726562 C 193.570312 0.726562 204.117188 6.6875 212 17.515625 C 219.738281 28.144531 224 42.238281 224 57.207031 C 224 72.171875 219.738281 86.265625 212 96.894531 C 204.117188 107.722656 193.570312 113.683594 182.308594 113.683594 Z M 182.308594 4.917969 C 161.628906 4.917969 144.804688 28.375 144.804688 57.207031 C 144.804688 86.035156 161.628906 109.492188 182.308594 109.492188 C 202.984375 109.492188 219.808594 86.035156 219.808594 57.207031 C 219.808594 28.375 202.988281 4.917969 182.308594 4.917969 Z M 182.308594 4.917969 " fill-opacity="1" fill-rule="nonzero"/></g><g clip-path="url(#688e596af6)"><path fill="#26973c" d="M 182.308594 113.683594 C 177.125 113.683594 172.691406 107.648438 169.480469 96.226562 C 166.542969 85.777344 164.925781 71.917969 164.925781 57.207031 C 164.925781 42.492188 166.542969 28.632812 169.480469 18.183594 C 172.691406 6.761719 177.125 0.726562 182.308594 0.726562 C 187.488281 0.726562 191.925781 6.761719 195.132812 18.183594 C 198.074219 28.632812 199.691406 42.492188 199.691406 57.207031 C 199.691406 71.917969 198.070312 85.777344 195.132812 96.226562 C 191.925781 107.648438 187.488281 113.683594 182.308594 113.683594 Z M 182.308594 4.917969 C 176.800781 4.917969 169.117188 24.808594 169.117188 57.207031 C 169.117188 89.601562 176.800781 109.492188 182.308594 109.492188 C 187.816406 109.492188 195.496094 89.601562 195.496094 57.207031 C 195.496094 24.808594 187.816406 4.917969 182.308594 4.917969 Z M 182.308594 4.917969 " fill-opacity="1" fill-rule="nonzero"/></g><path fill="#ffffff" d="M 240.347656 68.457031 C 238.191406 70.847656 122.21875 71.191406 120.0625 68.457031 C 117.90625 65.726562 117.90625 45.914062 120.0625 43.183594 C 122.21875 40.449219 237.574219 41.132812 240.347656 43.183594 C 243.121094 45.230469 242.503906 66.066406 240.347656 68.457031 Z M 240.347656 68.457031 " fill-opacity="1" fill-rule="nonzero"/><path fill="#051d40" d="M 177.265625 71.636719 C 162.265625 71.636719 148.433594 71.472656 138.320312 71.171875 C 120.175781 70.632812 119.59375 69.890625 119.074219 69.234375 C 117.324219 67.019531 117.1875 58.40625 117.1875 55.820312 C 117.1875 53.234375 117.324219 44.625 119.074219 42.40625 C 119.601562 41.738281 120.148438 41.046875 137.039062 40.550781 C 146.476562 40.269531 159.175781 40.125 173.765625 40.125 C 189.601562 40.125 205.832031 40.300781 218.296875 40.613281 C 239.710938 41.148438 240.578125 41.789062 241.09375 42.171875 C 241.828125 42.710938 242.726562 43.929688 243.191406 48.578125 C 243.855469 55.164062 243.332031 67.027344 241.28125 69.300781 C 240.769531 69.871094 240.128906 70.578125 219.851562 71.140625 C 208.367188 71.457031 192.847656 71.636719 177.265625 71.636719 Z M 120.941406 67.503906 C 123.488281 68.296875 141.898438 69.121094 177.265625 69.121094 C 209.285156 69.121094 236.253906 68.398438 239.515625 67.460938 C 240.082031 66.421875 240.84375 62.078125 240.9375 55.800781 C 241.039062 48.960938 240.269531 45.015625 239.652344 44.253906 C 236.5625 43.375 206.699219 42.636719 173.765625 42.636719 C 140.433594 42.636719 123.390625 43.378906 120.941406 44.136719 C 120.394531 45.203125 119.703125 49.257812 119.703125 55.820312 C 119.703125 62.382812 120.394531 66.4375 120.941406 67.503906 Z M 120.941406 67.503906 " fill-opacity="1" fill-rule="nonzero"/><path fill="#051d40" d="M 240.347656 43.183594 C 239.539062 42.585938 229.144531 42.101562 214.78125 41.789062 L 214.78125 70.007812 C 229.269531 69.683594 239.714844 69.160156 240.347656 68.457031 C 242.503906 66.066406 243.121094 45.230469 240.347656 43.183594 Z M 240.347656 43.183594 " fill-opacity="1" fill-rule="nonzero"/><path fill="#051d40" d="M 213.523438 71.292969 L 213.523438 40.503906 L 214.808594 40.53125 C 239.613281 41.074219 240.578125 41.789062 241.097656 42.171875 C 241.828125 42.710938 242.726562 43.929688 243.191406 48.578125 C 243.855469 55.160156 243.332031 67.027344 241.28125 69.300781 C 240.75 69.890625 240.015625 70.703125 214.808594 71.265625 Z M 216.039062 43.074219 L 216.039062 68.722656 C 234.738281 68.28125 238.695312 67.671875 239.519531 67.457031 C 240.085938 66.410156 240.84375 62.070312 240.9375 55.800781 C 241.039062 48.96875 240.269531 45.027344 239.65625 44.257812 C 238.980469 44.082031 235.332031 43.519531 216.039062 43.074219 Z M 216.039062 43.074219 " fill-opacity="1" fill-rule="nonzero"/><path fill="#051d40" d="M 140.304688 63.964844 C 139.789062 63.964844 139.328125 63.652344 139.136719 63.175781 L 136.0625 55.523438 L 132.664062 63.214844 C 132.460938 63.667969 132.011719 63.964844 131.511719 63.964844 C 131.507812 63.964844 131.503906 63.964844 131.5 63.964844 C 130.996094 63.957031 130.546875 63.652344 130.351562 63.1875 L 125.597656 51.796875 C 125.328125 51.15625 125.632812 50.417969 126.273438 50.152344 C 126.910156 49.882812 127.648438 50.1875 127.917969 50.828125 L 131.546875 59.519531 L 134.96875 51.78125 C 135.167969 51.324219 135.621094 51.03125 136.117188 51.03125 C 136.125 51.03125 136.132812 51.03125 136.140625 51.03125 C 136.644531 51.039062 137.097656 51.351562 137.285156 51.820312 L 140.210938 59.105469 L 143.03125 50.902344 C 143.257812 50.246094 143.972656 49.894531 144.632812 50.121094 C 145.289062 50.347656 145.636719 51.0625 145.410156 51.71875 L 141.492188 63.113281 C 141.324219 63.609375 140.863281 63.949219 140.335938 63.960938 C 140.324219 63.964844 140.3125 63.964844 140.304688 63.964844 Z M 140.304688 63.964844 " fill-opacity="1" fill-rule="nonzero"/><path fill="#051d40" d="M 163.101562 63.964844 C 162.589844 63.964844 162.128906 63.652344 161.9375 63.175781 L 158.863281 55.523438 L 155.460938 63.214844 C 155.257812 63.671875 154.789062 63.949219 154.300781 63.964844 C 153.796875 63.957031 153.34375 63.652344 153.152344 63.1875 L 148.394531 51.796875 C 148.128906 51.15625 148.429688 50.417969 149.070312 50.152344 C 149.710938 49.882812 150.449219 50.1875 150.714844 50.828125 L 154.34375 59.519531 L 157.765625 51.78125 C 157.96875 51.324219 158.417969 51.03125 158.917969 51.03125 C 158.925781 51.03125 158.929688 51.03125 158.9375 51.03125 C 159.445312 51.039062 159.894531 51.351562 160.082031 51.820312 L 163.011719 59.105469 L 165.832031 50.902344 C 166.058594 50.246094 166.773438 49.894531 167.429688 50.121094 C 168.085938 50.347656 168.4375 51.0625 168.210938 51.71875 L 164.292969 63.113281 C 164.121094 63.609375 163.660156 63.949219 163.132812 63.960938 C 163.125 63.964844 163.113281 63.964844 163.101562 63.964844 Z M 163.101562 63.964844 " fill-opacity="1" fill-rule="nonzero"/><path fill="#051d40" d="M 185.902344 63.964844 C 185.390625 63.964844 184.925781 63.652344 184.734375 63.175781 L 181.660156 55.523438 L 178.261719 63.214844 C 178.058594 63.671875 177.601562 63.949219 177.097656 63.964844 C 176.59375 63.957031 176.144531 63.652344 175.949219 63.1875 L 171.195312 51.796875 C 170.925781 51.15625 171.230469 50.417969 171.871094 50.152344 C 172.511719 49.882812 173.25 50.1875 173.515625 50.828125 L 177.144531 59.519531 L 180.566406 51.78125 C 180.769531 51.324219 181.21875 51.03125 181.714844 51.03125 C 181.722656 51.03125 181.730469 51.03125 181.738281 51.03125 C 182.242188 51.039062 182.695312 51.351562 182.882812 51.820312 L 185.808594 59.105469 L 188.628906 50.902344 C 188.855469 50.246094 189.570312 49.894531 190.230469 50.121094 C 190.886719 50.347656 191.234375 51.0625 191.007812 51.71875 L 187.089844 63.113281 C 186.917969 63.609375 186.457031 63.949219 185.933594 63.960938 C 185.921875 63.964844 185.914062 63.964844 185.902344 63.964844 Z M 185.902344 63.964844 " fill-opacity="1" fill-rule="nonzero"/><path fill="#ed3338" d="M 229.34375 57.679688 C 226.0625 60.421875 221.164062 59.980469 218.421875 56.699219 C 215.679688 53.417969 216.117188 48.519531 219.398438 45.777344 C 222.679688 43.035156 227.582031 43.476562 230.320312 46.753906 C 233.0625 50.035156 232.625 54.9375 229.34375 57.679688 Z M 221.011719 47.707031 C 218.792969 49.558594 218.5 52.871094 220.351562 55.085938 C 222.203125 57.304688 225.515625 57.601562 227.730469 55.746094 C 229.949219 53.894531 230.246094 50.585938 228.390625 48.367188 C 226.539062 46.152344 223.230469 45.855469 221.011719 47.707031 Z M 221.011719 47.707031 " fill-opacity="1" fill-rule="nonzero"/><path fill="#ed3338" d="M 227.253906 57.789062 L 229.824219 55.640625 L 231.480469 57.617188 L 228.90625 59.769531 Z M 227.253906 57.789062 " fill-opacity="1" fill-rule="nonzero"/><path fill="#ed3338" d="M 236.238281 65.929688 C 235.707031 66.375 234.914062 66.300781 234.46875 65.769531 L 230.4375 60.945312 C 229.992188 60.414062 230.0625 59.617188 230.59375 59.175781 C 231.125 58.730469 231.917969 58.800781 232.363281 59.332031 L 236.398438 64.15625 C 236.84375 64.691406 236.773438 65.484375 236.238281 65.929688 Z M 236.238281 65.929688 " fill-opacity="1" fill-rule="nonzero"/><path fill="#ed3338" d="M 229.550781 59.226562 L 230.839844 58.152344 L 232.492188 60.128906 L 231.203125 61.203125 Z M 229.550781 59.226562 " fill-opacity="1" fill-rule="nonzero"/><g fill="#ff0000" fill-opacity="1"><g transform="translate(63.412844, 199.168293)"><g><path d="M 14.738281 -5.847656 L 14.738281 -17.675781 L 12.917969 -17.675781 L 12.917969 -5.589844 C 12.917969 -4.859375 12.789062 -4.261719 12.53125 -3.769531 C 11.777344 -2.3125 10.320312 -1.585938 8.164062 -1.585938 C 6.757812 -1.585938 5.640625 -1.898438 4.808594 -2.519531 C 3.847656 -3.222656 3.378906 -4.238281 3.378906 -5.589844 L 3.378906 -17.675781 L 1.558594 -17.675781 L 1.558594 -5.847656 C 1.558594 -3.925781 2.183594 -2.417969 3.429688 -1.324219 C 4.601562 -0.285156 6.1875 0.234375 8.164062 0.234375 C 10.113281 0.234375 11.671875 -0.285156 12.867188 -1.324219 C 14.113281 -2.417969 14.738281 -3.925781 14.738281 -5.847656 Z M 14.738281 -5.847656 "/></g></g></g><g fill="#ff0000" fill-opacity="1"><g transform="translate(81.580785, 199.168293)"><g><path d="M 3.769531 0 L 3.769531 -17.675781 L 1.949219 -17.675781 L 1.949219 0 Z M 3.769531 0 "/></g></g></g><g fill="#ff0000" fill-opacity="1"><g transform="translate(89.170686, 199.168293)"><g><path d="M 14.738281 -5.847656 L 14.738281 -17.675781 L 12.917969 -17.675781 L 12.917969 -5.589844 C 12.917969 -4.859375 12.789062 -4.261719 12.53125 -3.769531 C 11.777344 -2.3125 10.320312 -1.585938 8.164062 -1.585938 C 6.757812 -1.585938 5.640625 -1.898438 4.808594 -2.519531 C 3.847656 -3.222656 3.378906 -4.238281 3.378906 -5.589844 L 3.378906 -17.675781 L 1.558594 -17.675781 L 1.558594 -5.847656 C 1.558594 -3.925781 2.183594 -2.417969 3.429688 -1.324219 C 4.601562 -0.285156 6.1875 0.234375 8.164062 0.234375 C 10.113281 0.234375 11.671875 -0.285156 12.867188 -1.324219 C 14.113281 -2.417969 14.738281 -3.925781 14.738281 -5.847656 Z M 14.738281 -5.847656 "/></g></g></g><g fill="#ff0000" fill-opacity="1"><g transform="translate(107.338629, 199.168293)"><g><path d="M 12.972656 0 L 15.207031 0 L 8.992188 -8.839844 L 15.207031 -17.675781 L 12.972656 -17.675781 L 7.875 -10.136719 L 2.78125 -17.675781 L 0.519531 -17.675781 L 6.757812 -8.8125 L 0.546875 0 L 2.78125 0 L 7.875 -7.539062 Z M 12.972656 0 "/></g></g></g><g fill="#ff0000" fill-opacity="1"><g transform="translate(124.96078, 199.168293)"><g/></g></g><g fill="#ff0000" fill-opacity="1"><g transform="translate(133.850193, 199.168293)"><g><path d="M 3.769531 -8.734375 L 3.769531 -15.933594 L 7.875 -15.933594 C 8.941406 -15.933594 9.800781 -15.597656 10.449219 -14.921875 C 11.074219 -14.246094 11.410156 -13.414062 11.410156 -12.375 C 11.410156 -11.332031 11.074219 -10.476562 10.398438 -9.773438 C 9.722656 -9.070312 8.890625 -8.734375 7.875 -8.734375 Z M 13.230469 -12.347656 C 13.230469 -13.855469 12.660156 -15.15625 11.566406 -16.167969 C 10.5 -17.15625 9.175781 -17.675781 7.617188 -17.675781 L 1.949219 -17.675781 L 1.949219 0 L 3.769531 0 L 3.769531 -6.992188 L 5.875 -6.992188 L 11.074219 0 L 13.515625 0 L 8.058594 -6.992188 C 9.4375 -7.070312 10.605469 -7.5625 11.566406 -8.472656 C 12.660156 -9.488281 13.230469 -10.789062 13.230469 -12.347656 Z M 13.230469 -12.347656 "/></g></g></g><g fill="#ff0000" fill-opacity="1"><g transform="translate(149.860949, 199.168293)"><g><path d="M 12.453125 0 L 12.453125 -1.691406 L 3.769531 -1.691406 L 3.769531 -7.980469 L 12.191406 -7.980469 L 12.191406 -9.695312 L 3.769531 -9.695312 L 3.769531 -15.988281 L 12.453125 -15.988281 L 12.453125 -17.675781 L 1.949219 -17.675781 L 1.949219 0 Z M 12.453125 0 "/></g></g></g><g fill="#ff0000" fill-opacity="1"><g transform="translate(166.131602, 199.168293)"><g><path d="M 15.675781 -8.839844 C 15.675781 -10.113281 15.414062 -11.28125 14.945312 -12.375 C 14.480469 -13.464844 13.828125 -14.402344 13.023438 -15.179688 C 12.191406 -15.960938 11.230469 -16.558594 10.136719 -17 C 9.019531 -17.441406 7.824219 -17.675781 6.578125 -17.675781 L 1.949219 -17.675781 L 1.949219 0 L 6.578125 0 C 7.824219 0 9.019531 -0.207031 10.136719 -0.648438 C 11.230469 -1.089844 12.191406 -1.714844 13.023438 -2.496094 C 13.828125 -3.273438 14.480469 -4.183594 14.945312 -5.277344 C 15.414062 -6.367188 15.675781 -7.539062 15.675781 -8.839844 Z M 13.90625 -8.839844 C 13.90625 -6.808594 13.179688 -5.121094 11.777344 -3.796875 C 10.371094 -2.46875 8.65625 -1.820312 6.628906 -1.820312 L 3.769531 -1.820312 L 3.769531 -15.855469 L 6.628906 -15.855469 C 8.65625 -15.855469 10.371094 -15.179688 11.777344 -13.882812 C 13.179688 -12.53125 13.90625 -10.839844 13.90625 -8.839844 Z M 13.90625 -8.839844 "/></g></g></g><g fill="#ff0000" fill-opacity="1"><g transform="translate(184.845349, 199.168293)"><g><path d="M 12.453125 0 L 12.453125 -1.691406 L 3.769531 -1.691406 L 3.769531 -7.980469 L 12.191406 -7.980469 L 12.191406 -9.695312 L 3.769531 -9.695312 L 3.769531 -15.988281 L 12.453125 -15.988281 L 12.453125 -17.675781 L 1.949219 -17.675781 L 1.949219 0 Z M 12.453125 0 "/></g></g></g><g fill="#ff0000" fill-opacity="1"><g transform="translate(201.116006, 199.168293)"><g><path d="M 6.835938 -8.316406 C 9.125 -7.773438 10.683594 -7.175781 11.515625 -6.5 C 12.085938 -6.03125 12.375 -5.433594 12.375 -4.703125 C 12.375 -3.976562 12.21875 -3.378906 11.90625 -2.964844 C 11.125 -1.871094 9.722656 -1.324219 7.746094 -1.324219 C 4.992188 -1.324219 3.429688 -2.261719 3.09375 -4.132812 L 0.960938 -4.132812 C 1.585938 -1.144531 3.847656 0.339844 7.746094 0.339844 C 9.488281 0.339844 10.945312 -0.0273438 12.113281 -0.804688 C 13.515625 -1.714844 14.246094 -3.066406 14.246094 -4.835938 C 14.246094 -6.289062 13.671875 -7.410156 12.53125 -8.1875 C 11.722656 -8.761719 10.421875 -9.28125 8.628906 -9.746094 C 6.808594 -10.214844 5.640625 -10.605469 5.09375 -10.890625 C 3.898438 -11.488281 3.300781 -12.320312 3.328125 -13.414062 C 3.328125 -13.984375 3.429688 -14.480469 3.691406 -14.84375 C 4.367188 -15.855469 5.5625 -16.375 7.277344 -16.375 C 9.695312 -16.375 11.074219 -15.597656 11.4375 -14.089844 L 13.414062 -14.089844 C 12.761719 -16.636719 10.710938 -17.9375 7.277344 -17.9375 C 5.71875 -17.9375 4.339844 -17.519531 3.199219 -16.6875 C 2.027344 -15.855469 1.429688 -14.636719 1.429688 -12.972656 C 1.429688 -10.710938 3.25 -9.148438 6.835938 -8.316406 Z M 6.835938 -8.316406 "/></g></g></g><g fill="#ff0000" fill-opacity="1"><g transform="translate(217.906468, 199.168293)"><g><path d="M 3.769531 0 L 3.769531 -17.675781 L 1.949219 -17.675781 L 1.949219 0 Z M 3.769531 0 "/></g></g></g><g fill="#ff0000" fill-opacity="1"><g transform="translate(225.496372, 199.168293)"><g><path d="M 19.390625 -8.265625 L 10.191406 -8.265625 L 10.191406 -6.679688 L 17.363281 -6.679688 C 16.820312 -5.148438 15.910156 -3.898438 14.609375 -2.988281 C 13.308594 -2.054688 11.851562 -1.613281 10.269531 -1.613281 C 8.238281 -1.613281 6.523438 -2.3125 5.09375 -3.742188 C 3.691406 -5.171875 2.988281 -6.914062 2.988281 -8.917969 C 2.988281 -10.917969 3.691406 -12.632812 5.121094 -14.0625 C 6.523438 -15.464844 8.238281 -16.195312 10.269531 -16.195312 C 11.777344 -16.195312 13.152344 -15.753906 14.375 -14.894531 C 15.621094 -14.035156 16.507812 -12.917969 17.078125 -11.488281 L 19 -11.488281 C 18.402344 -13.4375 17.285156 -15 15.675781 -16.195312 C 14.0625 -17.390625 12.191406 -18.015625 10.085938 -18.015625 C 8.941406 -18.015625 7.824219 -17.753906 6.734375 -17.285156 C 5.613281 -16.820312 4.652344 -16.167969 3.820312 -15.335938 C 2.988281 -14.503906 2.339844 -13.542969 1.871094 -12.453125 C 1.402344 -11.332031 1.167969 -10.136719 1.167969 -8.890625 C 1.167969 -7.640625 1.402344 -6.445312 1.871094 -5.355469 C 2.339844 -4.238281 2.988281 -3.273438 3.820312 -2.445312 C 4.652344 -1.613281 5.613281 -0.960938 6.734375 -0.492188 C 7.824219 -0.0273438 9.019531 0.207031 10.269531 0.207031 C 12.398438 0.207031 14.324219 -0.46875 16.039062 -1.84375 C 17.753906 -3.25 18.820312 -5.015625 19.210938 -7.175781 Z M 19.390625 -8.265625 "/></g></g></g><g fill="#ff0000" fill-opacity="1"><g transform="translate(247.926725, 199.168293)"><g><path d="M 3.769531 -13.023438 L 13.699219 1.089844 L 13.699219 -17.675781 L 11.878906 -17.675781 L 11.878906 -4.679688 L 1.949219 -18.792969 L 1.949219 0 L 3.769531 0 Z M 3.769531 -13.023438 "/></g></g></g><g fill="#ff0000" fill-opacity="1"><g transform="translate(265.444913, 199.168293)"><g><path d="M 12.453125 0 L 12.453125 -1.691406 L 3.769531 -1.691406 L 3.769531 -7.980469 L 12.191406 -7.980469 L 12.191406 -9.695312 L 3.769531 -9.695312 L 3.769531 -15.988281 L 12.453125 -15.988281 L 12.453125 -17.675781 L 1.949219 -17.675781 L 1.949219 0 Z M 12.453125 0 "/></g></g></g><g fill="#ff0000" fill-opacity="1"><g transform="translate(281.715571, 199.168293)"><g><path d="M 15.675781 -8.839844 C 15.675781 -10.113281 15.414062 -11.28125 14.945312 -12.375 C 14.480469 -13.464844 13.828125 -14.402344 13.023438 -15.179688 C 12.191406 -15.960938 11.230469 -16.558594 10.136719 -17 C 9.019531 -17.441406 7.824219 -17.675781 6.578125 -17.675781 L 1.949219 -17.675781 L 1.949219 0 L 6.578125 0 C 7.824219 0 9.019531 -0.207031 10.136719 -0.648438 C 11.230469 -1.089844 12.191406 -1.714844 13.023438 -2.496094 C 13.828125 -3.273438 14.480469 -4.183594 14.945312 -5.277344 C 15.414062 -6.367188 15.675781 -7.539062 15.675781 -8.839844 Z M 13.90625 -8.839844 C 13.90625 -6.808594 13.179688 -5.121094 11.777344 -3.796875 C 10.371094 -2.46875 8.65625 -1.820312 6.628906 -1.820312 L 3.769531 -1.820312 L 3.769531 -15.855469 L 6.628906 -15.855469 C 8.65625 -15.855469 10.371094 -15.179688 11.777344 -13.882812 C 13.179688 -12.53125 13.90625 -10.839844 13.90625 -8.839844 Z M 13.90625 -8.839844 "/></g></g></g><g fill="#00ffff" fill-opacity="1"><g transform="translate(62.437824, 199.168293)"><g><path d="M 14.738281 -5.847656 L 14.738281 -17.675781 L 12.917969 -17.675781 L 12.917969 -5.589844 C 12.917969 -4.859375 12.789062 -4.261719 12.53125 -3.769531 C 11.777344 -2.3125 10.320312 -1.585938 8.164062 -1.585938 C 6.757812 -1.585938 5.640625 -1.898438 4.808594 -2.519531 C 3.847656 -3.222656 3.378906 -4.238281 3.378906 -5.589844 L 3.378906 -17.675781 L 1.558594 -17.675781 L 1.558594 -5.847656 C 1.558594 -3.925781 2.183594 -2.417969 3.429688 -1.324219 C 4.601562 -0.285156 6.1875 0.234375 8.164062 0.234375 C 10.113281 0.234375 11.671875 -0.285156 12.867188 -1.324219 C 14.113281 -2.417969 14.738281 -3.925781 14.738281 -5.847656 Z M 14.738281 -5.847656 "/></g></g></g><g fill="#00ffff" fill-opacity="1"><g transform="translate(80.605766, 199.168293)"><g><path d="M 3.769531 0 L 3.769531 -17.675781 L 1.949219 -17.675781 L 1.949219 0 Z M 3.769531 0 "/></g></g></g><g fill="#00ffff" fill-opacity="1"><g transform="translate(88.195666, 199.168293)"><g><path d="M 14.738281 -5.847656 L 14.738281 -17.675781 L 12.917969 -17.675781 L 12.917969 -5.589844 C 12.917969 -4.859375 12.789062 -4.261719 12.53125 -3.769531 C 11.777344 -2.3125 10.320312 -1.585938 8.164062 -1.585938 C 6.757812 -1.585938 5.640625 -1.898438 4.808594 -2.519531 C 3.847656 -3.222656 3.378906 -4.238281 3.378906 -5.589844 L 3.378906 -17.675781 L 1.558594 -17.675781 L 1.558594 -5.847656 C 1.558594 -3.925781 2.183594 -2.417969 3.429688 -1.324219 C 4.601562 -0.285156 6.1875 0.234375 8.164062 0.234375 C 10.113281 0.234375 11.671875 -0.285156 12.867188 -1.324219 C 14.113281 -2.417969 14.738281 -3.925781 14.738281 -5.847656 Z M 14.738281 -5.847656 "/></g></g></g><g fill="#00ffff" fill-opacity="1"><g transform="translate(106.363609, 199.168293)"><g><path d="M 12.972656 0 L 15.207031 0 L 8.992188 -8.839844 L 15.207031 -17.675781 L 12.972656 -17.675781 L 7.875 -10.136719 L 2.78125 -17.675781 L 0.519531 -17.675781 L 6.757812 -8.8125 L 0.546875 0 L 2.78125 0 L 7.875 -7.539062 Z M 12.972656 0 "/></g></g></g><g fill="#00ffff" fill-opacity="1"><g transform="translate(123.98576, 199.168293)"><g/></g></g><g fill="#00ffff" fill-opacity="1"><g transform="translate(132.875173, 199.168293)"><g><path d="M 3.769531 -8.734375 L 3.769531 -15.933594 L 7.875 -15.933594 C 8.941406 -15.933594 9.800781 -15.597656 10.449219 -14.921875 C 11.074219 -14.246094 11.410156 -13.414062 11.410156 -12.375 C 11.410156 -11.332031 11.074219 -10.476562 10.398438 -9.773438 C 9.722656 -9.070312 8.890625 -8.734375 7.875 -8.734375 Z M 13.230469 -12.347656 C 13.230469 -13.855469 12.660156 -15.15625 11.566406 -16.167969 C 10.5 -17.15625 9.175781 -17.675781 7.617188 -17.675781 L 1.949219 -17.675781 L 1.949219 0 L 3.769531 0 L 3.769531 -6.992188 L 5.875 -6.992188 L 11.074219 0 L 13.515625 0 L 8.058594 -6.992188 C 9.4375 -7.070312 10.605469 -7.5625 11.566406 -8.472656 C 12.660156 -9.488281 13.230469 -10.789062 13.230469 -12.347656 Z M 13.230469 -12.347656 "/></g></g></g><g fill="#00ffff" fill-opacity="1"><g transform="translate(148.88593, 199.168293)"><g><path d="M 12.453125 0 L 12.453125 -1.691406 L 3.769531 -1.691406 L 3.769531 -7.980469 L 12.191406 -7.980469 L 12.191406 -9.695312 L 3.769531 -9.695312 L 3.769531 -15.988281 L 12.453125 -15.988281 L 12.453125 -17.675781 L 1.949219 -17.675781 L 1.949219 0 Z M 12.453125 0 "/></g></g></g><g fill="#00ffff" fill-opacity="1"><g transform="translate(165.156582, 199.168293)"><g><path d="M 15.675781 -8.839844 C 15.675781 -10.113281 15.414062 -11.28125 14.945312 -12.375 C 14.480469 -13.464844 13.828125 -14.402344 13.023438 -15.179688 C 12.191406 -15.960938 11.230469 -16.558594 10.136719 -17 C 9.019531 -17.441406 7.824219 -17.675781 6.578125 -17.675781 L 1.949219 -17.675781 L 1.949219 0 L 6.578125 0 C 7.824219 0 9.019531 -0.207031 10.136719 -0.648438 C 11.230469 -1.089844 12.191406 -1.714844 13.023438 -2.496094 C 13.828125 -3.273438 14.480469 -4.183594 14.945312 -5.277344 C 15.414062 -6.367188 15.675781 -7.539062 15.675781 -8.839844 Z M 13.90625 -8.839844 C 13.90625 -6.808594 13.179688 -5.121094 11.777344 -3.796875 C 10.371094 -2.46875 8.65625 -1.820312 6.628906 -1.820312 L 3.769531 -1.820312 L 3.769531 -15.855469 L 6.628906 -15.855469 C 8.65625 -15.855469 10.371094 -15.179688 11.777344 -13.882812 C 13.179688 -12.53125 13.90625 -10.839844 13.90625 -8.839844 Z M 13.90625 -8.839844 "/></g></g></g><g fill="#00ffff" fill-opacity="1"><g transform="translate(183.870329, 199.168293)"><g><path d="M 12.453125 0 L 12.453125 -1.691406 L 3.769531 -1.691406 L 3.769531 -7.980469 L 12.191406 -7.980469 L 12.191406 -9.695312 L 3.769531 -9.695312 L 3.769531 -15.988281 L 12.453125 -15.988281 L 12.453125 -17.675781 L 1.949219 -17.675781 L 1.949219 0 Z M 12.453125 0 "/></g></g></g><g fill="#00ffff" fill-opacity="1"><g transform="translate(200.140987, 199.168293)"><g><path d="M 6.835938 -8.316406 C 9.125 -7.773438 10.683594 -7.175781 11.515625 -6.5 C 12.085938 -6.03125 12.375 -5.433594 12.375 -4.703125 C 12.375 -3.976562 12.21875 -3.378906 11.90625 -2.964844 C 11.125 -1.871094 9.722656 -1.324219 7.746094 -1.324219 C 4.992188 -1.324219 3.429688 -2.261719 3.09375 -4.132812 L 0.960938 -4.132812 C 1.585938 -1.144531 3.847656 0.339844 7.746094 0.339844 C 9.488281 0.339844 10.945312 -0.0273438 12.113281 -0.804688 C 13.515625 -1.714844 14.246094 -3.066406 14.246094 -4.835938 C 14.246094 -6.289062 13.671875 -7.410156 12.53125 -8.1875 C 11.722656 -8.761719 10.421875 -9.28125 8.628906 -9.746094 C 6.808594 -10.214844 5.640625 -10.605469 5.09375 -10.890625 C 3.898438 -11.488281 3.300781 -12.320312 3.328125 -13.414062 C 3.328125 -13.984375 3.429688 -14.480469 3.691406 -14.84375 C 4.367188 -15.855469 5.5625 -16.375 7.277344 -16.375 C 9.695312 -16.375 11.074219 -15.597656 11.4375 -14.089844 L 13.414062 -14.089844 C 12.761719 -16.636719 10.710938 -17.9375 7.277344 -17.9375 C 5.71875 -17.9375 4.339844 -17.519531 3.199219 -16.6875 C 2.027344 -15.855469 1.429688 -14.636719 1.429688 -12.972656 C 1.429688 -10.710938 3.25 -9.148438 6.835938 -8.316406 Z M 6.835938 -8.316406 "/></g></g></g><g fill="#00ffff" fill-opacity="1"><g transform="translate(216.931448, 199.168293)"><g><path d="M 3.769531 0 L 3.769531 -17.675781 L 1.949219 -17.675781 L 1.949219 0 Z M 3.769531 0 "/></g></g></g><g fill="#00ffff" fill-opacity="1"><g transform="translate(224.521353, 199.168293)"><g><path d="M 19.390625 -8.265625 L 10.191406 -8.265625 L 10.191406 -6.679688 L 17.363281 -6.679688 C 16.820312 -5.148438 15.910156 -3.898438 14.609375 -2.988281 C 13.308594 -2.054688 11.851562 -1.613281 10.269531 -1.613281 C 8.238281 -1.613281 6.523438 -2.3125 5.09375 -3.742188 C 3.691406 -5.171875 2.988281 -6.914062 2.988281 -8.917969 C 2.988281 -10.917969 3.691406 -12.632812 5.121094 -14.0625 C 6.523438 -15.464844 8.238281 -16.195312 10.269531 -16.195312 C 11.777344 -16.195312 13.152344 -15.753906 14.375 -14.894531 C 15.621094 -14.035156 16.507812 -12.917969 17.078125 -11.488281 L 19 -11.488281 C 18.402344 -13.4375 17.285156 -15 15.675781 -16.195312 C 14.0625 -17.390625 12.191406 -18.015625 10.085938 -18.015625 C 8.941406 -18.015625 7.824219 -17.753906 6.734375 -17.285156 C 5.613281 -16.820312 4.652344 -16.167969 3.820312 -15.335938 C 2.988281 -14.503906 2.339844 -13.542969 1.871094 -12.453125 C 1.402344 -11.332031 1.167969 -10.136719 1.167969 -8.890625 C 1.167969 -7.640625 1.402344 -6.445312 1.871094 -5.355469 C 2.339844 -4.238281 2.988281 -3.273438 3.820312 -2.445312 C 4.652344 -1.613281 5.613281 -0.960938 6.734375 -0.492188 C 7.824219 -0.0273438 9.019531 0.207031 10.269531 0.207031 C 12.398438 0.207031 14.324219 -0.46875 16.039062 -1.84375 C 17.753906 -3.25 18.820312 -5.015625 19.210938 -7.175781 Z M 19.390625 -8.265625 "/></g></g></g><g fill="#00ffff" fill-opacity="1"><g transform="translate(246.951705, 199.168293)"><g><path d="M 3.769531 -13.023438 L 13.699219 1.089844 L 13.699219 -17.675781 L 11.878906 -17.675781 L 11.878906 -4.679688 L 1.949219 -18.792969 L 1.949219 0 L 3.769531 0 Z M 3.769531 -13.023438 "/></g></g></g><g fill="#00ffff" fill-opacity="1"><g transform="translate(264.469894, 199.168293)"><g><path d="M 12.453125 0 L 12.453125 -1.691406 L 3.769531 -1.691406 L 3.769531 -7.980469 L 12.191406 -7.980469 L 12.191406 -9.695312 L 3.769531 -9.695312 L 3.769531 -15.988281 L 12.453125 -15.988281 L 12.453125 -17.675781 L 1.949219 -17.675781 L 1.949219 0 Z M 12.453125 0 "/></g></g></g><g fill="#00ffff" fill-opacity="1"><g transform="translate(280.740551, 199.168293)"><g><path d="M 15.675781 -8.839844 C 15.675781 -10.113281 15.414062 -11.28125 14.945312 -12.375 C 14.480469 -13.464844 13.828125 -14.402344 13.023438 -15.179688 C 12.191406 -15.960938 11.230469 -16.558594 10.136719 -17 C 9.019531 -17.441406 7.824219 -17.675781 6.578125 -17.675781 L 1.949219 -17.675781 L 1.949219 0 L 6.578125 0 C 7.824219 0 9.019531 -0.207031 10.136719 -0.648438 C 11.230469 -1.089844 12.191406 -1.714844 13.023438 -2.496094 C 13.828125 -3.273438 14.480469 -4.183594 14.945312 -5.277344 C 15.414062 -6.367188 15.675781 -7.539062 15.675781 -8.839844 Z M 13.90625 -8.839844 C 13.90625 -6.808594 13.179688 -5.121094 11.777344 -3.796875 C 10.371094 -2.46875 8.65625 -1.820312 6.628906 -1.820312 L 3.769531 -1.820312 L 3.769531 -15.855469 L 6.628906 -15.855469 C 8.65625 -15.855469 10.371094 -15.179688 11.777344 -13.882812 C 13.179688 -12.53125 13.90625 -10.839844 13.90625 -8.839844 Z M 13.90625 -8.839844 "/></g></g></g><g fill="#feedaa" fill-opacity="1"><g transform="translate(62.925334, 199.168293)"><g><path d="M 14.738281 -5.847656 L 14.738281 -17.675781 L 12.917969 -17.675781 L 12.917969 -5.589844 C 12.917969 -4.859375 12.789062 -4.261719 12.53125 -3.769531 C 11.777344 -2.3125 10.320312 -1.585938 8.164062 -1.585938 C 6.757812 -1.585938 5.640625 -1.898438 4.808594 -2.519531 C 3.847656 -3.222656 3.378906 -4.238281 3.378906 -5.589844 L 3.378906 -17.675781 L 1.558594 -17.675781 L 1.558594 -5.847656 C 1.558594 -3.925781 2.183594 -2.417969 3.429688 -1.324219 C 4.601562 -0.285156 6.1875 0.234375 8.164062 0.234375 C 10.113281 0.234375 11.671875 -0.285156 12.867188 -1.324219 C 14.113281 -2.417969 14.738281 -3.925781 14.738281 -5.847656 Z M 14.738281 -5.847656 "/></g></g></g><g fill="#feedaa" fill-opacity="1"><g transform="translate(81.093276, 199.168293)"><g><path d="M 3.769531 0 L 3.769531 -17.675781 L 1.949219 -17.675781 L 1.949219 0 Z M 3.769531 0 "/></g></g></g><g fill="#feedaa" fill-opacity="1"><g transform="translate(88.683176, 199.168293)"><g><path d="M 14.738281 -5.847656 L 14.738281 -17.675781 L 12.917969 -17.675781 L 12.917969 -5.589844 C 12.917969 -4.859375 12.789062 -4.261719 12.53125 -3.769531 C 11.777344 -2.3125 10.320312 -1.585938 8.164062 -1.585938 C 6.757812 -1.585938 5.640625 -1.898438 4.808594 -2.519531 C 3.847656 -3.222656 3.378906 -4.238281 3.378906 -5.589844 L 3.378906 -17.675781 L 1.558594 -17.675781 L 1.558594 -5.847656 C 1.558594 -3.925781 2.183594 -2.417969 3.429688 -1.324219 C 4.601562 -0.285156 6.1875 0.234375 8.164062 0.234375 C 10.113281 0.234375 11.671875 -0.285156 12.867188 -1.324219 C 14.113281 -2.417969 14.738281 -3.925781 14.738281 -5.847656 Z M 14.738281 -5.847656 "/></g></g></g><g fill="#feedaa" fill-opacity="1"><g transform="translate(106.851119, 199.168293)"><g><path d="M 12.972656 0 L 15.207031 0 L 8.992188 -8.839844 L 15.207031 -17.675781 L 12.972656 -17.675781 L 7.875 -10.136719 L 2.78125 -17.675781 L 0.519531 -17.675781 L 6.757812 -8.8125 L 0.546875 0 L 2.78125 0 L 7.875 -7.539062 Z M 12.972656 0 "/></g></g></g><g fill="#feedaa" fill-opacity="1"><g transform="translate(124.47327, 199.168293)"><g/></g></g><g fill="#feedaa" fill-opacity="1"><g transform="translate(133.362683, 199.168293)"><g><path d="M 3.769531 -8.734375 L 3.769531 -15.933594 L 7.875 -15.933594 C 8.941406 -15.933594 9.800781 -15.597656 10.449219 -14.921875 C 11.074219 -14.246094 11.410156 -13.414062 11.410156 -12.375 C 11.410156 -11.332031 11.074219 -10.476562 10.398438 -9.773438 C 9.722656 -9.070312 8.890625 -8.734375 7.875 -8.734375 Z M 13.230469 -12.347656 C 13.230469 -13.855469 12.660156 -15.15625 11.566406 -16.167969 C 10.5 -17.15625 9.175781 -17.675781 7.617188 -17.675781 L 1.949219 -17.675781 L 1.949219 0 L 3.769531 0 L 3.769531 -6.992188 L 5.875 -6.992188 L 11.074219 0 L 13.515625 0 L 8.058594 -6.992188 C 9.4375 -7.070312 10.605469 -7.5625 11.566406 -8.472656 C 12.660156 -9.488281 13.230469 -10.789062 13.230469 -12.347656 Z M 13.230469 -12.347656 "/></g></g></g><g fill="#feedaa" fill-opacity="1"><g transform="translate(149.373439, 199.168293)"><g><path d="M 12.453125 0 L 12.453125 -1.691406 L 3.769531 -1.691406 L 3.769531 -7.980469 L 12.191406 -7.980469 L 12.191406 -9.695312 L 3.769531 -9.695312 L 3.769531 -15.988281 L 12.453125 -15.988281 L 12.453125 -17.675781 L 1.949219 -17.675781 L 1.949219 0 Z M 12.453125 0 "/></g></g></g><g fill="#feedaa" fill-opacity="1"><g transform="translate(165.644092, 199.168293)"><g><path d="M 15.675781 -8.839844 C 15.675781 -10.113281 15.414062 -11.28125 14.945312 -12.375 C 14.480469 -13.464844 13.828125 -14.402344 13.023438 -15.179688 C 12.191406 -15.960938 11.230469 -16.558594 10.136719 -17 C 9.019531 -17.441406 7.824219 -17.675781 6.578125 -17.675781 L 1.949219 -17.675781 L 1.949219 0 L 6.578125 0 C 7.824219 0 9.019531 -0.207031 10.136719 -0.648438 C 11.230469 -1.089844 12.191406 -1.714844 13.023438 -2.496094 C 13.828125 -3.273438 14.480469 -4.183594 14.945312 -5.277344 C 15.414062 -6.367188 15.675781 -7.539062 15.675781 -8.839844 Z M 13.90625 -8.839844 C 13.90625 -6.808594 13.179688 -5.121094 11.777344 -3.796875 C 10.371094 -2.46875 8.65625 -1.820312 6.628906 -1.820312 L 3.769531 -1.820312 L 3.769531 -15.855469 L 6.628906 -15.855469 C 8.65625 -15.855469 10.371094 -15.179688 11.777344 -13.882812 C 13.179688 -12.53125 13.90625 -10.839844 13.90625 -8.839844 Z M 13.90625 -8.839844 "/></g></g></g><g fill="#feedaa" fill-opacity="1"><g transform="translate(184.357839, 199.168293)"><g><path d="M 12.453125 0 L 12.453125 -1.691406 L 3.769531 -1.691406 L 3.769531 -7.980469 L 12.191406 -7.980469 L 12.191406 -9.695312 L 3.769531 -9.695312 L 3.769531 -15.988281 L 12.453125 -15.988281 L 12.453125 -17.675781 L 1.949219 -17.675781 L 1.949219 0 Z M 12.453125 0 "/></g></g></g><g fill="#feedaa" fill-opacity="1"><g transform="translate(200.628497, 199.168293)"><g><path d="M 6.835938 -8.316406 C 9.125 -7.773438 10.683594 -7.175781 11.515625 -6.5 C 12.085938 -6.03125 12.375 -5.433594 12.375 -4.703125 C 12.375 -3.976562 12.21875 -3.378906 11.90625 -2.964844 C 11.125 -1.871094 9.722656 -1.324219 7.746094 -1.324219 C 4.992188 -1.324219 3.429688 -2.261719 3.09375 -4.132812 L 0.960938 -4.132812 C 1.585938 -1.144531 3.847656 0.339844 7.746094 0.339844 C 9.488281 0.339844 10.945312 -0.0273438 12.113281 -0.804688 C 13.515625 -1.714844 14.246094 -3.066406 14.246094 -4.835938 C 14.246094 -6.289062 13.671875 -7.410156 12.53125 -8.1875 C 11.722656 -8.761719 10.421875 -9.28125 8.628906 -9.746094 C 6.808594 -10.214844 5.640625 -10.605469 5.09375 -10.890625 C 3.898438 -11.488281 3.300781 -12.320312 3.328125 -13.414062 C 3.328125 -13.984375 3.429688 -14.480469 3.691406 -14.84375 C 4.367188 -15.855469 5.5625 -16.375 7.277344 -16.375 C 9.695312 -16.375 11.074219 -15.597656 11.4375 -14.089844 L 13.414062 -14.089844 C 12.761719 -16.636719 10.710938 -17.9375 7.277344 -17.9375 C 5.71875 -17.9375 4.339844 -17.519531 3.199219 -16.6875 C 2.027344 -15.855469 1.429688 -14.636719 1.429688 -12.972656 C 1.429688 -10.710938 3.25 -9.148438 6.835938 -8.316406 Z M 6.835938 -8.316406 "/></g></g></g><g fill="#feedaa" fill-opacity="1"><g transform="translate(217.418958, 199.168293)"><g><path d="M 3.769531 0 L 3.769531 -17.675781 L 1.949219 -17.675781 L 1.949219 0 Z M 3.769531 0 "/></g></g></g><g fill="#feedaa" fill-opacity="1"><g transform="translate(225.008863, 199.168293)"><g><path d="M 19.390625 -8.265625 L 10.191406 -8.265625 L 10.191406 -6.679688 L 17.363281 -6.679688 C 16.820312 -5.148438 15.910156 -3.898438 14.609375 -2.988281 C 13.308594 -2.054688 11.851562 -1.613281 10.269531 -1.613281 C 8.238281 -1.613281 6.523438 -2.3125 5.09375 -3.742188 C 3.691406 -5.171875 2.988281 -6.914062 2.988281 -8.917969 C 2.988281 -10.917969 3.691406 -12.632812 5.121094 -14.0625 C 6.523438 -15.464844 8.238281 -16.195312 10.269531 -16.195312 C 11.777344 -16.195312 13.152344 -15.753906 14.375 -14.894531 C 15.621094 -14.035156 16.507812 -12.917969 17.078125 -11.488281 L 19 -11.488281 C 18.402344 -13.4375 17.285156 -15 15.675781 -16.195312 C 14.0625 -17.390625 12.191406 -18.015625 10.085938 -18.015625 C 8.941406 -18.015625 7.824219 -17.753906 6.734375 -17.285156 C 5.613281 -16.820312 4.652344 -16.167969 3.820312 -15.335938 C 2.988281 -14.503906 2.339844 -13.542969 1.871094 -12.453125 C 1.402344 -11.332031 1.167969 -10.136719 1.167969 -8.890625 C 1.167969 -7.640625 1.402344 -6.445312 1.871094 -5.355469 C 2.339844 -4.238281 2.988281 -3.273438 3.820312 -2.445312 C 4.652344 -1.613281 5.613281 -0.960938 6.734375 -0.492188 C 7.824219 -0.0273438 9.019531 0.207031 10.269531 0.207031 C 12.398438 0.207031 14.324219 -0.46875 16.039062 -1.84375 C 17.753906 -3.25 18.820312 -5.015625 19.210938 -7.175781 Z M 19.390625 -8.265625 "/></g></g></g><g fill="#feedaa" fill-opacity="1"><g transform="translate(247.439215, 199.168293)"><g><path d="M 3.769531 -13.023438 L 13.699219 1.089844 L 13.699219 -17.675781 L 11.878906 -17.675781 L 11.878906 -4.679688 L 1.949219 -18.792969 L 1.949219 0 L 3.769531 0 Z M 3.769531 -13.023438 "/></g></g></g><g fill="#feedaa" fill-opacity="1"><g transform="translate(264.957403, 199.168293)"><g><path d="M 12.453125 0 L 12.453125 -1.691406 L 3.769531 -1.691406 L 3.769531 -7.980469 L 12.191406 -7.980469 L 12.191406 -9.695312 L 3.769531 -9.695312 L 3.769531 -15.988281 L 12.453125 -15.988281 L 12.453125 -17.675781 L 1.949219 -17.675781 L 1.949219 0 Z M 12.453125 0 "/></g></g></g><g fill="#feedaa" fill-opacity="1"><g transform="translate(281.228061, 199.168293)"><g><path d="M 15.675781 -8.839844 C 15.675781 -10.113281 15.414062 -11.28125 14.945312 -12.375 C 14.480469 -13.464844 13.828125 -14.402344 13.023438 -15.179688 C 12.191406 -15.960938 11.230469 -16.558594 10.136719 -17 C 9.019531 -17.441406 7.824219 -17.675781 6.578125 -17.675781 L 1.949219 -17.675781 L 1.949219 0 L 6.578125 0 C 7.824219 0 9.019531 -0.207031 10.136719 -0.648438 C 11.230469 -1.089844 12.191406 -1.714844 13.023438 -2.496094 C 13.828125 -3.273438 14.480469 -4.183594 14.945312 -5.277344 C 15.414062 -6.367188 15.675781 -7.539062 15.675781 -8.839844 Z M 13.90625 -8.839844 C 13.90625 -6.808594 13.179688 -5.121094 11.777344 -3.796875 C 10.371094 -2.46875 8.65625 -1.820312 6.628906 -1.820312 L 3.769531 -1.820312 L 3.769531 -15.855469 L 6.628906 -15.855469 C 8.65625 -15.855469 10.371094 -15.179688 11.777344 -13.882812 C 13.179688 -12.53125 13.90625 -10.839844 13.90625 -8.839844 Z M 13.90625 -8.839844 "/></g></g></g><g fill="#000000" fill-opacity="1"><g transform="translate(79.456066, 165.282026)"><g><path d="M 19.460938 -10.582031 C 22.679688 -12.09375 24.363281 -15.15625 24.363281 -19.578125 C 24.363281 -25.492188 21.320312 -29.394531 13.222656 -29.394531 L 3.695312 -29.394531 C 3.175781 -29.394531 2.910156 -29.128906 2.910156 -28.609375 L 2.910156 -0.785156 C 2.910156 -0.269531 3.175781 0 3.695312 0 L 7.5 0 C 8.019531 0 8.285156 -0.269531 8.285156 -0.785156 L 8.285156 -9.53125 L 14.179688 -9.53125 L 18.679688 -0.59375 C 18.871094 -0.191406 19.136719 0 19.578125 0 L 23.960938 0 C 24.554688 0 24.800781 -0.382812 24.535156 -0.9375 Z M 8.285156 -24.628906 L 12.535156 -24.628906 C 14.640625 -24.628906 19.023438 -24.589844 19.023438 -19.539062 C 19.023438 -14.335938 14.410156 -14.277344 12.535156 -14.277344 L 8.285156 -14.277344 Z M 8.285156 -24.628906 "/></g></g></g><g fill="#000000" fill-opacity="1"><g transform="translate(104.466826, 165.282026)"><g><path d="M 7.5 0 C 8.019531 0 8.285156 -0.269531 8.285156 -0.785156 L 8.285156 -9.589844 L 21.011719 -9.589844 L 21.011719 -0.785156 C 21.011719 -0.269531 21.28125 0 21.796875 0 L 25.605469 0 C 26.121094 0 26.390625 -0.269531 26.390625 -0.785156 L 26.390625 -28.609375 C 26.390625 -29.128906 26.121094 -29.394531 25.605469 -29.394531 L 21.796875 -29.394531 C 21.28125 -29.394531 21.011719 -29.128906 21.011719 -28.609375 L 21.011719 -14.351562 L 8.285156 -14.351562 L 8.285156 -28.609375 C 8.285156 -29.128906 8.019531 -29.394531 7.5 -29.394531 L 3.695312 -29.394531 C 3.175781 -29.394531 2.910156 -29.128906 2.910156 -28.609375 L 2.910156 -0.785156 C 2.910156 -0.269531 3.175781 0 3.695312 0 Z M 7.5 0 "/></g></g></g><g fill="#000000" fill-opacity="1"><g transform="translate(132.175718, 165.282026)"><g><path d="M 15.40625 0 C 15.902344 0 16.191406 -0.269531 16.191406 -0.785156 L 16.191406 -12.878906 L 26.503906 -28.457031 C 26.867188 -28.953125 26.640625 -29.394531 26.007812 -29.394531 L 21.320312 -29.394531 C 20.917969 -29.394531 20.574219 -29.222656 20.363281 -28.859375 L 13.511719 -17.875 L 6.679688 -28.859375 C 6.46875 -29.222656 6.164062 -29.394531 5.742188 -29.394531 L 1.050781 -29.394531 C 0.441406 -29.394531 0.191406 -28.953125 0.554688 -28.457031 L 10.792969 -12.859375 L 10.792969 -0.785156 C 10.792969 -0.269531 11.082031 0 11.578125 0 Z M 15.40625 0 "/></g></g></g><g fill="#000000" fill-opacity="1"><g transform="translate(157.626598, 165.282026)"><g><path d="M 12.363281 0 C 12.878906 0 13.148438 -0.269531 13.148438 -0.785156 L 13.148438 -24.628906 L 19.519531 -24.628906 C 20.035156 -24.628906 20.304688 -24.917969 20.304688 -25.414062 L 20.304688 -28.609375 C 20.304688 -29.128906 20.035156 -29.394531 19.519531 -29.394531 L 1.378906 -29.394531 C 0.859375 -29.394531 0.59375 -29.128906 0.59375 -28.609375 L 0.59375 -25.414062 C 0.59375 -24.917969 0.859375 -24.628906 1.378906 -24.628906 L 7.730469 -24.628906 L 7.730469 -0.785156 C 7.730469 -0.269531 8.019531 0 8.515625 0 Z M 12.363281 0 "/></g></g></g><g fill="#000000" fill-opacity="1"><g transform="translate(176.934921, 165.282026)"><g><path d="M 7.445312 0 C 7.960938 0 8.230469 -0.269531 8.230469 -0.785156 L 8.230469 -16.382812 L 16.574219 -5.53125 C 16.917969 -5.070312 17.339844 -5.070312 17.683594 -5.53125 L 26.066406 -16.421875 L 26.066406 -0.785156 C 26.066406 -0.269531 26.332031 0 26.851562 0 L 30.5625 0 C 31.078125 0 31.347656 -0.269531 31.347656 -0.785156 L 31.347656 -28.765625 C 31.347656 -30.238281 30.3125 -30.5625 29.433594 -29.394531 L 17.128906 -13.128906 L 4.859375 -29.394531 C 3.960938 -30.582031 2.945312 -30.238281 2.945312 -28.765625 L 2.945312 -0.785156 C 2.945312 -0.269531 3.214844 0 3.730469 0 Z M 7.445312 0 "/></g></g></g><g fill="#000000" fill-opacity="1"><g transform="translate(209.619093, 165.282026)"><g><path d="M 19.539062 0 C 20.054688 0 20.324219 -0.269531 20.324219 -0.785156 L 20.324219 -3.980469 C 20.324219 -4.476562 20.054688 -4.765625 19.539062 -4.765625 L 8.285156 -4.765625 L 8.285156 -9.683594 L 18.007812 -9.683594 C 18.523438 -9.683594 18.792969 -9.953125 18.792969 -10.46875 L 18.792969 -13.453125 C 18.792969 -13.96875 18.523438 -14.238281 18.007812 -14.238281 L 8.285156 -14.238281 L 8.285156 -24.628906 L 19.539062 -24.628906 C 20.054688 -24.628906 20.324219 -24.917969 20.324219 -25.414062 L 20.324219 -28.609375 C 20.324219 -29.128906 20.054688 -29.394531 19.539062 -29.394531 L 3.695312 -29.394531 C 3.175781 -29.394531 2.910156 -29.128906 2.910156 -28.609375 L 2.910156 -0.785156 C 2.910156 -0.269531 3.175781 0 3.695312 0 Z M 19.539062 0 "/></g></g></g><g fill="#000000" fill-opacity="1"><g transform="translate(230.1521, 165.282026)"><g><path d="M 17.050781 0 C 17.566406 0 17.835938 -0.269531 17.835938 -0.785156 L 17.835938 -3.980469 C 17.835938 -4.476562 17.566406 -4.765625 17.050781 -4.765625 L 8.285156 -4.765625 L 8.285156 -28.609375 C 8.285156 -29.128906 8.019531 -29.394531 7.5 -29.394531 L 3.695312 -29.394531 C 3.175781 -29.394531 2.910156 -29.128906 2.910156 -28.609375 L 2.910156 -0.785156 C 2.910156 -0.269531 3.175781 0 3.695312 0 Z M 17.050781 0 "/></g></g></g><g fill="#000000" fill-opacity="1"><g transform="translate(247.011055, 165.282026)"><g><path d="M 17.222656 0.6875 C 26.179688 0.6875 32.800781 -5.511719 32.800781 -14.699219 C 32.800781 -23.863281 26.179688 -30.085938 17.222656 -30.085938 C 8.285156 -30.085938 1.683594 -23.863281 1.683594 -14.699219 C 1.683594 -5.511719 8.285156 0.6875 17.222656 0.6875 Z M 17.222656 -4.304688 C 11.464844 -4.304688 7.082031 -8.457031 7.082031 -14.699219 C 7.082031 -20.957031 11.445312 -25.089844 17.222656 -25.089844 C 23.003906 -25.089844 27.425781 -20.957031 27.425781 -14.699219 C 27.425781 -8.441406 23.003906 -4.304688 17.222656 -4.304688 Z M 17.222656 -4.304688 "/></g></g></g></svg>