<svg id="visual" viewBox="0 0 900 300" width="900" height="300" xmlns="http://www.w3.org/2000/svg" xmlns:xlink="http://www.w3.org/1999/xlink" version="1.1"><rect x="0" y="0" width="900" height="300" fill="#80BCBD"></rect><path d="M0 88L21.5 90.7C43 93.3 86 98.7 128.8 101.5C171.7 104.3 214.3 104.7 257.2 103.8C300 103 343 101 385.8 101.5C428.7 102 471.3 105 514.2 104.3C557 103.7 600 99.3 642.8 96.8C685.7 94.3 728.3 93.7 771.2 90.7C814 87.7 857 82.3 878.5 79.7L900 77L900 0L878.5 0C857 0 814 0 771.2 0C728.3 0 685.7 0 642.8 0C600 0 557 0 514.2 0C471.3 0 428.7 0 385.8 0C343 0 300 0 257.2 0C214.3 0 171.7 0 128.8 0C86 0 43 0 21.5 0L0 0Z" fill="#aad9bb"></path><path d="M0 87L21.5 86.7C43 86.3 86 85.7 128.8 83.7C171.7 81.7 214.3 78.3 257.2 78.3C300 78.3 343 81.7 385.8 82.8C428.7 84 471.3 83 514.2 82.3C557 81.7 600 81.3 642.8 83C685.7 84.7 728.3 88.3 771.2 91.8C814 95.3 857 98.7 878.5 100.3L900 102L900 0L878.5 0C857 0 814 0 771.2 0C728.3 0 685.7 0 642.8 0C600 0 557 0 514.2 0C471.3 0 428.7 0 385.8 0C343 0 300 0 257.2 0C214.3 0 171.7 0 128.8 0C86 0 43 0 21.5 0L0 0Z" fill="#76aaa2"></path><path d="M0 77L21.5 74.3C43 71.7 86 66.3 128.8 61.2C171.7 56 214.3 51 257.2 52.8C300 54.7 343 63.3 385.8 68.7C428.7 74 471.3 76 514.2 74.2C557 72.3 600 66.7 642.8 64C685.7 61.3 728.3 61.7 771.2 62.5C814 63.3 857 64.7 878.5 65.3L900 66L900 0L878.5 0C857 0 814 0 771.2 0C728.3 0 685.7 0 642.8 0C600 0 557 0 514.2 0C471.3 0 428.7 0 385.8 0C343 0 300 0 257.2 0C214.3 0 171.7 0 128.8 0C86 0 43 0 21.5 0L0 0Z" fill="#517c82"></path><path d="M0 57L21.5 56.7C43 56.3 86 55.7 128.8 50.8C171.7 46 214.3 37 257.2 34.2C300 31.3 343 34.7 385.8 38C428.7 41.3 471.3 44.7 514.2 46.5C557 48.3 600 48.7 642.8 49.2C685.7 49.7 728.3 50.3 771.2 47C814 43.7 857 36.3 878.5 32.7L900 29L900 0L878.5 0C857 0 814 0 771.2 0C728.3 0 685.7 0 642.8 0C600 0 557 0 514.2 0C471.3 0 428.7 0 385.8 0C343 0 300 0 257.2 0C214.3 0 171.7 0 128.8 0C86 0 43 0 21.5 0L0 0Z" fill="#374f5b"></path><path d="M0 34L21.5 34.2C43 34.3 86 34.7 128.8 31.2C171.7 27.7 214.3 20.3 257.2 18.5C300 16.7 343 20.3 385.8 21.5C428.7 22.7 471.3 21.3 514.2 21.7C557 22 600 24 642.8 25.7C685.7 27.3 728.3 28.7 771.2 29.3C814 30 857 30 878.5 30L900 30L900 0L878.5 0C857 0 814 0 771.2 0C728.3 0 685.7 0 642.8 0C600 0 557 0 514.2 0C471.3 0 428.7 0 385.8 0C343 0 300 0 257.2 0C214.3 0 171.7 0 128.8 0C86 0 43 0 21.5 0L0 0Z" fill="#202731"></path></svg>